<svg width="525" height="478" viewBox="0 0 525 478" fill="none" xmlns="http://www.w3.org/2000/svg">
<circle cx="137.5" cy="340.5" r="137.5" fill="#2D3645"/>
<circle cx="106" cy="113" r="102" fill="#9AACC8"/>
<g filter="url(#filter0_d_3_49)">
<circle cx="322.5" cy="173.5" r="150.5" fill="#5865F2"/>
</g>
<path d="M270.203 187.266C270.203 191.25 269.461 194.746 267.977 197.754C266.492 200.762 264.48 203.281 261.941 205.312C259.402 207.305 256.434 208.809 253.035 209.824C249.637 210.84 246.004 211.348 242.137 211.348C239.52 211.348 237.078 211.133 234.812 210.703C232.586 210.273 230.613 209.766 228.895 209.18C227.176 208.555 225.73 207.91 224.559 207.246C223.426 206.582 222.605 205.996 222.098 205.488C221.59 204.98 221.219 204.258 220.984 203.32C220.789 202.344 220.691 200.957 220.691 199.16C220.691 197.949 220.73 196.934 220.809 196.113C220.887 195.293 221.004 194.629 221.16 194.121C221.355 193.613 221.59 193.262 221.863 193.066C222.176 192.832 222.527 192.715 222.918 192.715C223.465 192.715 224.227 193.047 225.203 193.711C226.219 194.336 227.508 195.039 229.07 195.82C230.633 196.602 232.488 197.324 234.637 197.988C236.824 198.613 239.344 198.926 242.195 198.926C244.07 198.926 245.75 198.711 247.234 198.281C248.719 197.812 249.969 197.168 250.984 196.348C252.039 195.527 252.84 194.512 253.387 193.301C253.934 192.09 254.207 190.742 254.207 189.258C254.207 187.539 253.738 186.074 252.801 184.863C251.863 183.613 250.633 182.52 249.109 181.582C247.625 180.605 245.926 179.707 244.012 178.887C242.098 178.027 240.125 177.129 238.094 176.191C236.062 175.254 234.09 174.199 232.176 173.027C230.262 171.816 228.543 170.391 227.02 168.75C225.535 167.07 224.324 165.098 223.387 162.832C222.449 160.566 221.98 157.852 221.98 154.688C221.98 151.055 222.645 147.871 223.973 145.137C225.34 142.363 227.156 140.078 229.422 138.281C231.727 136.445 234.422 135.078 237.508 134.18C240.633 133.281 243.934 132.832 247.41 132.832C249.207 132.832 251.004 132.969 252.801 133.242C254.598 133.516 256.277 133.887 257.84 134.355C259.402 134.824 260.789 135.352 262 135.938C263.211 136.523 264.012 137.012 264.402 137.402C264.793 137.793 265.047 138.125 265.164 138.398C265.32 138.672 265.438 139.043 265.516 139.512C265.633 139.941 265.711 140.508 265.75 141.211C265.789 141.875 265.809 142.715 265.809 143.73C265.809 144.863 265.77 145.82 265.691 146.602C265.652 147.383 265.555 148.027 265.398 148.535C265.281 149.043 265.086 149.414 264.812 149.648C264.578 149.883 264.246 150 263.816 150C263.387 150 262.703 149.727 261.766 149.18C260.828 148.633 259.676 148.047 258.309 147.422C256.941 146.758 255.359 146.172 253.562 145.664C251.766 145.117 249.793 144.844 247.645 144.844C245.965 144.844 244.5 145.059 243.25 145.488C242 145.879 240.945 146.445 240.086 147.188C239.266 147.891 238.641 148.75 238.211 149.766C237.82 150.781 237.625 151.855 237.625 152.988C237.625 154.668 238.074 156.133 238.973 157.383C239.91 158.594 241.141 159.688 242.664 160.664C244.227 161.602 245.984 162.5 247.938 163.359C249.891 164.18 251.883 165.059 253.914 165.996C255.945 166.934 257.938 168.008 259.891 169.219C261.844 170.391 263.582 171.816 265.105 173.496C266.629 175.137 267.859 177.09 268.797 179.355C269.734 181.582 270.203 184.219 270.203 187.266ZM331.258 140.508C331.258 141.641 331.199 142.617 331.082 143.438C331.004 144.219 330.867 144.863 330.672 145.371C330.477 145.84 330.223 146.191 329.91 146.426C329.637 146.66 329.324 146.777 328.973 146.777H309.988V207.891C309.988 208.281 309.852 208.633 309.578 208.945C309.344 209.258 308.934 209.512 308.348 209.707C307.762 209.902 306.961 210.059 305.945 210.176C304.969 210.293 303.738 210.352 302.254 210.352C300.77 210.352 299.52 210.293 298.504 210.176C297.527 210.059 296.746 209.902 296.16 209.707C295.574 209.512 295.145 209.258 294.871 208.945C294.637 208.633 294.52 208.281 294.52 207.891V146.777H275.535C275.145 146.777 274.812 146.66 274.539 146.426C274.266 146.191 274.031 145.84 273.836 145.371C273.641 144.863 273.484 144.219 273.367 143.438C273.289 142.617 273.25 141.641 273.25 140.508C273.25 139.336 273.289 138.34 273.367 137.52C273.484 136.699 273.641 136.055 273.836 135.586C274.031 135.078 274.266 134.727 274.539 134.531C274.812 134.297 275.145 134.18 275.535 134.18H328.973C329.324 134.18 329.637 134.297 329.91 134.531C330.223 134.727 330.477 135.078 330.672 135.586C330.867 136.055 331.004 136.699 331.082 137.52C331.199 138.34 331.258 139.336 331.258 140.508ZM392.84 204.258C393.309 205.664 393.602 206.777 393.719 207.598C393.836 208.418 393.68 209.043 393.25 209.473C392.82 209.863 392.059 210.098 390.965 210.176C389.871 210.293 388.367 210.352 386.453 210.352C384.461 210.352 382.898 210.312 381.766 210.234C380.672 210.195 379.832 210.098 379.246 209.941C378.66 209.746 378.25 209.492 378.016 209.18C377.781 208.867 377.586 208.457 377.43 207.949L372.332 192.715H343.855L339.051 207.539C338.895 208.086 338.68 208.555 338.406 208.945C338.172 209.297 337.762 209.59 337.176 209.824C336.629 210.02 335.828 210.156 334.773 210.234C333.758 210.312 332.41 210.352 330.73 210.352C328.934 210.352 327.527 210.293 326.512 210.176C325.496 210.059 324.793 209.785 324.402 209.355C324.012 208.887 323.875 208.242 323.992 207.422C324.109 206.602 324.402 205.508 324.871 204.141L348.25 136.875C348.484 136.211 348.758 135.684 349.07 135.293C349.383 134.863 349.871 134.551 350.535 134.355C351.238 134.121 352.195 133.984 353.406 133.945C354.617 133.867 356.219 133.828 358.211 133.828C360.516 133.828 362.352 133.867 363.719 133.945C365.086 133.984 366.141 134.121 366.883 134.355C367.664 134.551 368.211 134.863 368.523 135.293C368.875 135.723 369.168 136.309 369.402 137.051L392.84 204.258ZM358.035 148.652H357.977L347.254 180.879H368.758L358.035 148.652ZM444.578 140.508C444.578 141.641 444.52 142.617 444.402 143.438C444.324 144.219 444.188 144.863 443.992 145.371C443.797 145.84 443.543 146.191 443.23 146.426C442.957 146.66 442.645 146.777 442.293 146.777H423.309V207.891C423.309 208.281 423.172 208.633 422.898 208.945C422.664 209.258 422.254 209.512 421.668 209.707C421.082 209.902 420.281 210.059 419.266 210.176C418.289 210.293 417.059 210.352 415.574 210.352C414.09 210.352 412.84 210.293 411.824 210.176C410.848 210.059 410.066 209.902 409.48 209.707C408.895 209.512 408.465 209.258 408.191 208.945C407.957 208.633 407.84 208.281 407.84 207.891V146.777H388.855C388.465 146.777 388.133 146.66 387.859 146.426C387.586 146.191 387.352 145.84 387.156 145.371C386.961 144.863 386.805 144.219 386.688 143.438C386.609 142.617 386.57 141.641 386.57 140.508C386.57 139.336 386.609 138.34 386.688 137.52C386.805 136.699 386.961 136.055 387.156 135.586C387.352 135.078 387.586 134.727 387.859 134.531C388.133 134.297 388.465 134.18 388.855 134.18H442.293C442.645 134.18 442.957 134.297 443.23 134.531C443.543 134.727 443.797 135.078 443.992 135.586C444.188 136.055 444.324 136.699 444.402 137.52C444.52 138.34 444.578 139.336 444.578 140.508Z" fill="#F7F7F7"/>
<path d="M150.621 374.891C150.621 375.281 150.504 375.633 150.27 375.945C150.074 376.258 149.684 376.512 149.098 376.707C148.551 376.902 147.809 377.059 146.871 377.176C145.934 377.293 144.742 377.352 143.297 377.352C141.891 377.352 140.719 377.293 139.781 377.176C138.844 377.059 138.102 376.902 137.555 376.707C137.008 376.512 136.617 376.258 136.383 375.945C136.148 375.633 136.031 375.281 136.031 374.891V313.191H135.914L113.941 374.832C113.785 375.34 113.531 375.77 113.18 376.121C112.828 376.434 112.34 376.688 111.715 376.883C111.129 377.078 110.367 377.195 109.43 377.234C108.492 377.312 107.359 377.352 106.031 377.352C104.703 377.352 103.57 377.293 102.633 377.176C101.695 377.098 100.914 376.961 100.289 376.766C99.7031 376.531 99.2344 376.258 98.8828 375.945C98.5312 375.633 98.2969 375.262 98.1797 374.832L76.9688 313.191H76.8516V374.891C76.8516 375.281 76.7344 375.633 76.5 375.945C76.3047 376.258 75.9141 376.512 75.3281 376.707C74.7422 376.902 73.9805 377.059 73.043 377.176C72.1445 377.293 70.9727 377.352 69.5273 377.352C68.1211 377.352 66.9492 377.293 66.0117 377.176C65.0742 377.059 64.3125 376.902 63.7266 376.707C63.1797 376.512 62.7891 376.258 62.5547 375.945C62.3594 375.633 62.2617 375.281 62.2617 374.891V307.332C62.2617 305.34 62.7891 303.816 63.8438 302.762C64.8984 301.707 66.3047 301.18 68.0625 301.18H78.1406C79.9375 301.18 81.4805 301.336 82.7695 301.648C84.0586 301.922 85.1719 302.41 86.1094 303.113C87.0469 303.777 87.8281 304.676 88.4531 305.809C89.0781 306.902 89.625 308.27 90.0938 309.91L106.5 355.086H106.734L123.727 310.027C124.234 308.387 124.781 307 125.367 305.867C125.992 304.734 126.695 303.816 127.477 303.113C128.297 302.41 129.254 301.922 130.348 301.648C131.441 301.336 132.711 301.18 134.156 301.18H144.527C145.582 301.18 146.48 301.316 147.223 301.59C148.004 301.863 148.629 302.273 149.098 302.82C149.605 303.328 149.977 303.973 150.211 304.754C150.484 305.496 150.621 306.355 150.621 307.332V374.891ZM212.086 370.965C212.086 372.098 212.027 373.055 211.91 373.836C211.832 374.578 211.695 375.184 211.5 375.652C211.305 376.121 211.051 376.473 210.738 376.707C210.465 376.902 210.152 377 209.801 377H171.715C170.426 377 169.332 376.629 168.434 375.887C167.574 375.105 167.145 373.855 167.145 372.137V306.043C167.145 304.324 167.574 303.094 168.434 302.352C169.332 301.57 170.426 301.18 171.715 301.18H209.566C209.918 301.18 210.23 301.277 210.504 301.473C210.777 301.668 211.012 302.02 211.207 302.527C211.402 302.996 211.539 303.621 211.617 304.402C211.734 305.145 211.793 306.102 211.793 307.273C211.793 308.367 211.734 309.305 211.617 310.086C211.539 310.828 211.402 311.434 211.207 311.902C211.012 312.371 210.777 312.723 210.504 312.957C210.23 313.152 209.918 313.25 209.566 313.25H182.496V331.766H205.406C205.758 331.766 206.07 331.883 206.344 332.117C206.656 332.312 206.91 332.645 207.105 333.113C207.301 333.543 207.438 334.148 207.516 334.93C207.633 335.672 207.691 336.59 207.691 337.684C207.691 338.816 207.633 339.754 207.516 340.496C207.438 341.238 207.301 341.844 207.105 342.312C206.91 342.742 206.656 343.055 206.344 343.25C206.07 343.445 205.758 343.543 205.406 343.543H182.496V364.93H209.801C210.152 364.93 210.465 365.047 210.738 365.281C211.051 365.477 211.305 365.809 211.5 366.277C211.695 366.746 211.832 367.371 211.91 368.152C212.027 368.895 212.086 369.832 212.086 370.965Z" fill="#F7F7F7"/>
<defs>
<filter id="filter0_d_3_49" x="124" y="0" width="401" height="401" filterUnits="userSpaceOnUse" color-interpolation-filters="sRGB">
<feFlood flood-opacity="0" result="BackgroundImageFix"/>
<feColorMatrix in="SourceAlpha" type="matrix" values="0 0 0 0 0 0 0 0 0 0 0 0 0 0 0 0 0 0 127 0" result="hardAlpha"/>
<feMorphology radius="17" operator="dilate" in="SourceAlpha" result="effect1_dropShadow_3_49"/>
<feOffset dx="2" dy="27"/>
<feGaussianBlur stdDeviation="16.5"/>
<feComposite in2="hardAlpha" operator="out"/>
<feColorMatrix type="matrix" values="0 0 0 0 0 0 0 0 0 0 0 0 0 0 0 0 0 0 0.25 0"/>
<feBlend mode="normal" in2="BackgroundImageFix" result="effect1_dropShadow_3_49"/>
<feBlend mode="normal" in="SourceGraphic" in2="effect1_dropShadow_3_49" result="shape"/>
</filter>
</defs>
</svg>
